ffmpeg started on 2025-05-29 at 16:10:07
Report written to "D:\Convert\FFMetrics\reports\psnr_report-6.txt"
Log level: 32
Command line:
ffmpeg -hide_banner -nostdin -i "G:\\\xc0\xed\xe8\xec\xe5\\\xce\xed\xe3\xee\xe8\xed\xe3\xe8\\!_36_\xce\xf1\xe5\xed\xfc_2024\\JamClub\\\xd0\xe0\xed\xec\xe0 1_2\\[JamClub] Ranma 1_2 - 12 [1080p]_HEVC.mkv" -i "G:\\\xc0\xed\xe8\xec\xe5\\\xce\xed\xe3\xee\xe8\xed\xe3\xe8\\!_36_\xce\xf1\xe5\xed\xfc_2024\\JamClub\\\xd0\xe0\xed\xec\xe0 1_2\\[JamClub] Ranma 1_2 - 12 [1080p].mp4" -lavfi "[0:v]settb=AVTB,setpts=PTS-STARTPTS,format=pix_fmts=yuv420p10,fps=24000/1001,scale=1920:1080:flags=bicubic[main];[1:v]settb=AVTB,setpts=PTS-STARTPTS,format=pix_fmts=yuv420p,fps=24000/1001,scale=1920:1080:flags=bicubic[ref];[main][ref]psnr=eof_action=endall:stats_file='D\\:/Convert/FFMetrics/logs/psnr_logfile-6.txt'" -f null -
Input #0, matroska,webm, from 'G:\Аниме\Онгоинги\!_36_Осень_2024\JamClub\Ранма 1_2\[JamClub] Ranma 1_2 - 12 [1080p]_HEVC.mkv':
  Metadata:
    COMPATIBLE_BRANDS: isomiso2avc1mp41
    MAJOR_BRAND     : isom
    MINOR_VERSION   : 512
    ENCODER         : Lavf61.7.100
  Duration: 00:24:48.36, start: -0.001000, bitrate: 1760 kb/s
  Stream #0:0: Video: hevc (Main 10), yuv420p10le(tv, bt709, progressive), 1920x1080 [SAR 1:1 DAR 16:9], 23.98 fps, 23.98 tbr, 1k tbn (default)
      Metadata:
        HANDLER_NAME    : VideoHandler
        VENDOR_ID       : [0][0][0][0]
        ENCODER         : Lavc61.19.100 libx265
        BPS             : 1574910
        DURATION        : 00:24:48.278708333
        NUMBER_OF_FRAMES: 35683
        NUMBER_OF_BYTES : 292988068
        _STATISTICS_WRITING_APP: mkvpropedit v66.0.0 ('Josie') 64-bit
        _STATISTICS_WRITING_DATE_UTC: 2025-05-29 09:09:21
        _STATISTICS_TAGS: BPS DURATION NUMBER_OF_FRAMES NUMBER_OF_BYTES
  Stream #0:1(eng): Audio: aac (LC), 48000 Hz, stereo, fltp (default)
      Metadata:
        HANDLER_NAME    : SoundHandler
        VENDOR_ID       : [0][0][0][0]
        ENCODER         : Lavc61.19.100 aac
        BPS             : 181718
        DURATION        : 00:24:48.323000000
        NUMBER_OF_FRAMES: 69766
        NUMBER_OF_BYTES : 33806898
        _STATISTICS_WRITING_APP: mkvpropedit v66.0.0 ('Josie') 64-bit
        _STATISTICS_WRITING_DATE_UTC: 2025-05-29 09:09:21
        _STATISTICS_TAGS: BPS DURATION NUMBER_OF_FRAMES NUMBER_OF_BYTES
Input #1, mov,mp4,m4a,3gp,3g2,mj2, from 'G:\Аниме\Онгоинги\!_36_Осень_2024\JamClub\Ранма 1_2\[JamClub] Ranma 1_2 - 12 [1080p].mp4':
  Metadata:
    major_brand     : isom
    minor_version   : 512
    compatible_brands: isomiso2avc1mp41
    encoder         : Lavf60.16.100
  Duration: 00:24:48.34, start: 0.000000, bitrate: 4445 kb/s
  Stream #1:0[0x1](und): Video: h264 (High) (avc1 / 0x31637661), yuv420p(progressive), 1920x1080 [SAR 1:1 DAR 16:9], 4247 kb/s, 23.98 fps, 23.98 tbr, 90k tbn (default)
      Metadata:
        handler_name    : VideoHandler
        vendor_id       : [0][0][0][0]
  Stream #1:1[0x2](eng): Audio: aac (LC) (mp4a / 0x6134706D), 48000 Hz, stereo, fltp, 191 kb/s (default)
      Metadata:
        handler_name    : SoundHandler
        vendor_id       : [0][0][0][0]
Stream mapping:
  Stream #0:0 (hevc) -> settb:default
  Stream #1:0 (h264) -> settb:default
  psnr:default -> Stream #0:0 (wrapped_avframe)
  Stream #0:1 -> #0:1 (aac (native) -> pcm_s16le (native))
Output #0, null, to 'pipe:':
  Metadata:
    COMPATIBLE_BRANDS: isomiso2avc1mp41
    MAJOR_BRAND     : isom
    MINOR_VERSION   : 512
    encoder         : Lavf61.7.100
  Stream #0:0: Video: wrapped_avframe, yuv420p10le(tv, bt709, progressive), 1920x1080 [SAR 1:1 DAR 16:9], q=2-31, 200 kb/s, 23.98 fps, 23.98 tbn
      Metadata:
        encoder         : Lavc61.19.100 wrapped_avframe
  Stream #0:1(eng): Audio: pcm_s16le, 48000 Hz, stereo, s16, 1536 kb/s (default)
      Metadata:
        HANDLER_NAME    : SoundHandler
        VENDOR_ID       : [0][0][0][0]
        _STATISTICS_TAGS: BPS DURATION NUMBER_OF_FRAMES NUMBER_OF_BYTES
        BPS             : 181718
        DURATION        : 00:24:48.323000000
        NUMBER_OF_FRAMES: 69766
        NUMBER_OF_BYTES : 33806898
        _STATISTICS_WRITING_APP: mkvpropedit v66.0.0 ('Josie') 64-bit
        _STATISTICS_WRITING_DATE_UTC: 2025-05-29 09:09:21
        encoder         : Lavc61.19.100 pcm_s16le
frame=  115 fps=0.0 q=-0.0 size=N/A time=00:00:04.79 bitrate=N/A speed=9.19x    frame=  269 fps=261 q=-0.0 size=N/A time=00:00:11.21 bitrate=N/A speed=10.9x    frame=  462 fps=298 q=-0.0 size=N/A time=00:00:19.26 bitrate=N/A speed=12.4x    frame=  711 fps=345 q=-0.0 size=N/A time=00:00:29.65 bitrate=N/A speed=14.4x    frame=  981 fps=380 q=-0.0 size=N/A time=00:00:40.91 bitrate=N/A speed=15.8x    frame= 1209 fps=389 q=-0.0 size=N/A time=00:00:50.42 bitrate=N/A speed=16.2x    frame= 1435 fps=396 q=-0.0 size=N/A time=00:00:59.85 bitrate=N/A speed=16.5x    frame= 1637 fps=396 q=-0.0 size=N/A time=00:01:08.27 bitrate=N/A speed=16.5x    frame= 1817 fps=390 q=-0.0 size=N/A time=00:01:15.78 bitrate=N/A speed=16.3x    frame= 1963 fps=380 q=-0.0 size=N/A time=00:01:21.87 bitrate=N/A speed=15.8x    frame= 2142 fps=377 q=-0.0 size=N/A time=00:01:29.33 bitrate=N/A speed=15.7x    frame= 2330 fps=376 q=-0.0 size=N/A time=00:01:37.18 bitrate=N/A speed=15.7x    frame= 2489 fps=371 q=-0.0 size=N/A time=00:01:43.81 bitrate=N/A speed=15.5x    frame= 2654 fps=367 q=-0.0 size=N/A time=00:01:50.69 bitrate=N/A speed=15.3x    frame= 2831 fps=365 q=-0.0 size=N/A time=00:01:58.07 bitrate=N/A speed=15.2x    frame= 2980 fps=360 q=-0.0 size=N/A time=00:02:04.29 bitrate=N/A speed=  15x    frame= 3156 fps=359 q=-0.0 size=N/A time=00:02:11.63 bitrate=N/A speed=  15x    frame= 3269 fps=352 q=-0.0 size=N/A time=00:02:16.34 bitrate=N/A speed=14.7x    frame= 3430 fps=350 q=-0.0 size=N/A time=00:02:23.05 bitrate=N/A speed=14.6x    frame= 3592 fps=348 q=-0.0 size=N/A time=00:02:29.81 bitrate=N/A speed=14.5x    frame= 3785 fps=349 q=-0.0 size=N/A time=00:02:37.86 bitrate=N/A speed=14.6x    frame= 4010 fps=353 q=-0.0 size=N/A time=00:02:47.25 bitrate=N/A speed=14.7x    frame= 4244 fps=357 q=-0.0 size=N/A time=00:02:57.01 bitrate=N/A speed=14.9x    frame= 4477 fps=361 q=-0.0 size=N/A time=00:03:06.72 bitrate=N/A speed=15.1x    frame= 4724 fps=366 q=-0.0 size=N/A time=00:03:17.03 bitrate=N/A speed=15.3x    frame= 4973 fps=371 q=-0.0 size=N/A time=00:03:27.41 bitrate=N/A speed=15.5x    frame= 5213 fps=374 q=-0.0 size=N/A time=00:03:37.42 bitrate=N/A speed=15.6x    frame= 5483 fps=379 q=-0.0 size=N/A time=00:03:48.68 bitrate=N/A speed=15.8x    frame= 5677 fps=379 q=-0.0 size=N/A time=00:03:56.77 bitrate=N/A speed=15.8x    frame= 5888 fps=380 q=-0.0 size=N/A time=00:04:05.57 bitrate=N/A speed=15.9x    frame= 6136 fps=384 q=-0.0 size=N/A time=00:04:15.92 bitrate=N/A speed=  16x    frame= 6361 fps=385 q=-0.0 size=N/A time=00:04:25.30 bitrate=N/A speed=16.1x    frame= 6618 fps=389 q=-0.0 size=N/A time=00:04:36.02 bitrate=N/A speed=16.2x    frame= 6866 fps=391 q=-0.0 size=N/A time=00:04:46.36 bitrate=N/A speed=16.3x    frame= 7105 fps=393 q=-0.0 size=N/A time=00:04:56.33 bitrate=N/A speed=16.4x    frame= 7360 fps=396 q=-0.0 size=N/A time=00:05:06.97 bitrate=N/A speed=16.5x    frame= 7625 fps=399 q=-0.0 size=N/A time=00:05:18.02 bitrate=N/A speed=16.7x    frame= 7844 fps=400 q=-0.0 size=N/A time=00:05:27.16 bitrate=N/A speed=16.7x    frame= 8077 fps=402 q=-0.0 size=N/A time=00:05:36.87 bitrate=N/A speed=16.7x    frame= 8331 fps=404 q=-0.0 size=N/A time=00:05:47.47 bitrate=N/A speed=16.8x    frame= 8568 fps=405 q=-0.0 size=N/A time=00:05:57.35 bitrate=N/A speed=16.9x    frame= 8779 fps=405 q=-0.0 size=N/A time=00:06:06.15 bitrate=N/A speed=16.9x    frame= 9026 fps=407 q=-0.0 size=N/A time=00:06:16.45 bitrate=N/A speed=  17x    frame= 9234 fps=407 q=-0.0 size=N/A time=00:06:25.13 bitrate=N/A speed=  17x    frame= 9395 fps=405 q=-0.0 size=N/A time=00:06:31.84 bitrate=N/A speed=16.9x    frame= 9634 fps=406 q=-0.0 size=N/A time=00:06:41.81 bitrate=N/A speed=16.9x    frame= 9874 fps=407 q=-0.0 size=N/A time=00:06:51.82 bitrate=N/A speed=  17x    frame=10125 fps=409 q=-0.0 size=N/A time=00:07:02.29 bitrate=N/A speed=17.1x    frame=10371 fps=410 q=-0.0 size=N/A time=00:07:12.55 bitrate=N/A speed=17.1x    frame=10596 fps=411 q=-0.0 size=N/A time=00:07:21.94 bitrate=N/A speed=17.1x    frame=10834 fps=412 q=-0.0 size=N/A time=00:07:31.86 bitrate=N/A speed=17.2x    frame=11077 fps=413 q=-0.0 size=N/A time=00:07:42.00 bitrate=N/A speed=17.2x    frame=11327 fps=414 q=-0.0 size=N/A time=00:07:52.43 bitrate=N/A speed=17.3x    frame=11570 fps=415 q=-0.0 size=N/A time=00:08:02.56 bitrate=N/A speed=17.3x    frame=11810 fps=416 q=-0.0 size=N/A time=00:08:12.57 bitrate=N/A speed=17.4x    frame=12047 fps=417 q=-0.0 size=N/A time=00:08:22.46 bitrate=N/A speed=17.4x    frame=12279 fps=418 q=-0.0 size=N/A time=00:08:32.13 bitrate=N/A speed=17.4x    frame=12471 fps=417 q=-0.0 size=N/A time=00:08:40.14 bitrate=N/A speed=17.4x    frame=12610 fps=414 q=-0.0 size=N/A time=00:08:45.94 bitrate=N/A speed=17.3x    frame=12839 fps=415 q=-0.0 size=N/A time=00:08:55.49 bitrate=N/A speed=17.3x    frame=13077 fps=416 q=-0.0 size=N/A time=00:09:05.41 bitrate=N/A speed=17.3x    frame=13298 fps=416 q=-0.0 size=N/A time=00:09:14.63 bitrate=N/A speed=17.3x    frame=13554 fps=417 q=-0.0 size=N/A time=00:09:25.31 bitrate=N/A speed=17.4x    frame=13775 fps=417 q=-0.0 size=N/A time=00:09:34.53 bitrate=N/A speed=17.4x    frame=14004 fps=418 q=-0.0 size=N/A time=00:09:44.08 bitrate=N/A speed=17.4x    frame=14261 fps=419 q=-0.0 size=N/A time=00:09:54.80 bitrate=N/A speed=17.5x    frame=14496 fps=419 q=-0.0 size=N/A time=00:10:04.60 bitrate=N/A speed=17.5x    frame=14751 fps=420 q=-0.0 size=N/A time=00:10:15.23 bitrate=N/A speed=17.5x    frame=14989 fps=421 q=-0.0 size=N/A time=00:10:25.16 bitrate=N/A speed=17.6x    frame=15210 fps=421 q=-0.0 size=N/A time=00:10:34.38 bitrate=N/A speed=17.6x    frame=15435 fps=421 q=-0.0 size=N/A time=00:10:43.76 bitrate=N/A speed=17.6x    frame=15624 fps=421 q=-0.0 size=N/A time=00:10:51.65 bitrate=N/A speed=17.5x    frame=15802 fps=420 q=-0.0 size=N/A time=00:10:59.07 bitrate=N/A speed=17.5x    frame=16041 fps=420 q=-0.0 size=N/A time=00:11:09.04 bitrate=N/A speed=17.5x    frame=16282 fps=421 q=-0.0 size=N/A time=00:11:19.09 bitrate=N/A speed=17.6x    frame=16519 fps=421 q=-0.0 size=N/A time=00:11:28.97 bitrate=N/A speed=17.6x    frame=16664 fps=419 q=-0.0 size=N/A time=00:11:35.02 bitrate=N/A speed=17.5x    frame=16872 fps=419 q=-0.0 size=N/A time=00:11:43.70 bitrate=N/A speed=17.5x    frame=17060 fps=419 q=-0.0 size=N/A time=00:11:51.54 bitrate=N/A speed=17.5x    frame=17310 fps=419 q=-0.0 size=N/A time=00:12:01.97 bitrate=N/A speed=17.5x    frame=17549 fps=420 q=-0.0 size=N/A time=00:12:11.93 bitrate=N/A speed=17.5x    frame=17777 fps=420 q=-0.0 size=N/A time=00:12:21.49 bitrate=N/A speed=17.5x    frame=17998 fps=420 q=-0.0 size=N/A time=00:12:30.66 bitrate=N/A speed=17.5x    frame=18249 fps=421 q=-0.0 size=N/A time=00:12:41.13 bitrate=N/A speed=17.6x    frame=18491 fps=422 q=-0.0 size=N/A time=00:12:51.22 bitrate=N/A speed=17.6x    frame=18730 fps=422 q=-0.0 size=N/A time=00:13:01.19 bitrate=N/A speed=17.6x    frame=18981 fps=423 q=-0.0 size=N/A time=00:13:11.66 bitrate=N/A speed=17.6x    frame=19195 fps=423 q=-0.0 size=N/A time=00:13:20.59 bitrate=N/A speed=17.6x    frame=19422 fps=423 q=-0.0 size=N/A time=00:13:30.05 bitrate=N/A speed=17.6x    frame=19618 fps=423 q=-0.0 size=N/A time=00:13:38.23 bitrate=N/A speed=17.6x    frame=19819 fps=422 q=-0.0 size=N/A time=00:13:46.61 bitrate=N/A speed=17.6x    frame=20052 fps=423 q=-0.0 size=N/A time=00:13:56.33 bitrate=N/A speed=17.6x    frame=20250 fps=422 q=-0.0 size=N/A time=00:14:04.59 bitrate=N/A speed=17.6x    frame=20477 fps=422 q=-0.0 size=N/A time=00:14:14.06 bitrate=N/A speed=17.6x    frame=20726 fps=423 q=-0.0 size=N/A time=00:14:24.44 bitrate=N/A speed=17.6x    frame=20914 fps=422 q=-0.0 size=N/A time=00:14:32.28 bitrate=N/A speed=17.6x    frame=21164 fps=423 q=-0.0 size=N/A time=00:14:42.71 bitrate=N/A speed=17.6x    frame=21408 fps=424 q=-0.0 size=N/A time=00:14:52.89 bitrate=N/A speed=17.7x    frame=21649 fps=424 q=-0.0 size=N/A time=00:15:02.94 bitrate=N/A speed=17.7x    frame=21888 fps=424 q=-0.0 size=N/A time=00:15:12.91 bitrate=N/A speed=17.7x    frame=22139 fps=425 q=-0.0 size=N/A time=00:15:23.38 bitrate=N/A speed=17.7x    frame=22393 fps=426 q=-0.0 size=N/A time=00:15:33.97 bitrate=N/A speed=17.8x    frame=22636 fps=426 q=-0.0 size=N/A time=00:15:44.15 bitrate=N/A speed=17.8x    frame=22854 fps=426 q=-0.0 size=N/A time=00:15:53.20 bitrate=N/A speed=17.8x    frame=23007 fps=425 q=-0.0 size=N/A time=00:15:59.58 bitrate=N/A speed=17.7x    frame=23180 fps=424 q=-0.0 size=N/A time=00:16:06.79 bitrate=N/A speed=17.7x    frame=23353 fps=423 q=-0.0 size=N/A time=00:16:14.01 bitrate=N/A speed=17.7x    frame=23603 fps=424 q=-0.0 size=N/A time=00:16:24.44 bitrate=N/A speed=17.7x    frame=23768 fps=423 q=-0.0 size=N/A time=00:16:31.32 bitrate=N/A speed=17.6x    frame=24022 fps=423 q=-0.0 size=N/A time=00:16:41.91 bitrate=N/A speed=17.7x    frame=24245 fps=423 q=-0.0 size=N/A time=00:16:51.21 bitrate=N/A speed=17.7x    frame=24442 fps=423 q=-0.0 size=N/A time=00:16:59.43 bitrate=N/A speed=17.7x    frame=24632 fps=423 q=-0.0 size=N/A time=00:17:07.35 bitrate=N/A speed=17.6x    frame=24886 fps=423 q=-0.0 size=N/A time=00:17:17.95 bitrate=N/A speed=17.7x    frame=25117 fps=423 q=-0.0 size=N/A time=00:17:27.58 bitrate=N/A speed=17.7x    frame=25321 fps=423 q=-0.0 size=N/A time=00:17:36.09 bitrate=N/A speed=17.7x    frame=25441 fps=422 q=-0.0 size=N/A time=00:17:41.10 bitrate=N/A speed=17.6x    frame=25669 fps=422 q=-0.0 size=N/A time=00:17:50.61 bitrate=N/A speed=17.6x    frame=25910 fps=422 q=-0.0 size=N/A time=00:18:00.66 bitrate=N/A speed=17.6x    frame=26126 fps=422 q=-0.0 size=N/A time=00:18:09.67 bitrate=N/A speed=17.6x    frame=26304 fps=421 q=-0.0 size=N/A time=00:18:17.09 bitrate=N/A speed=17.6x    frame=26541 fps=422 q=-0.0 size=N/A time=00:18:26.98 bitrate=N/A speed=17.6x    frame=26786 fps=422 q=-0.0 size=N/A time=00:18:37.19 bitrate=N/A speed=17.6x    frame=27013 fps=422 q=-0.0 size=N/A time=00:18:46.66 bitrate=N/A speed=17.6x    frame=27236 fps=422 q=-0.0 size=N/A time=00:18:55.96 bitrate=N/A speed=17.6x    frame=27464 fps=423 q=-0.0 size=N/A time=00:19:05.47 bitrate=N/A speed=17.6x    frame=27682 fps=423 q=-0.0 size=N/A time=00:19:14.57 bitrate=N/A speed=17.6x    frame=27915 fps=423 q=-0.0 size=N/A time=00:19:24.28 bitrate=N/A speed=17.6x    frame=28162 fps=423 q=-0.0 size=N/A time=00:19:34.59 bitrate=N/A speed=17.7x    frame=28404 fps=424 q=-0.0 size=N/A time=00:19:44.68 bitrate=N/A speed=17.7x    frame=28653 fps=424 q=-0.0 size=N/A time=00:19:55.06 bitrate=N/A speed=17.7x    frame=28896 fps=424 q=-0.0 size=N/A time=00:20:05.20 bitrate=N/A speed=17.7x    frame=29087 fps=424 q=-0.0 size=N/A time=00:20:13.17 bitrate=N/A speed=17.7x    frame=29291 fps=424 q=-0.0 size=N/A time=00:20:21.67 bitrate=N/A speed=17.7x    frame=29430 fps=423 q=-0.0 size=N/A time=00:20:27.47 bitrate=N/A speed=17.6x    frame=29682 fps=423 q=-0.0 size=N/A time=00:20:37.98 bitrate=N/A speed=17.6x    frame=29920 fps=423 q=-0.0 size=N/A time=00:20:47.91 bitrate=N/A speed=17.7x    frame=30158 fps=424 q=-0.0 size=N/A time=00:20:57.83 bitrate=N/A speed=17.7x    frame=30392 fps=424 q=-0.0 size=N/A time=00:21:07.59 bitrate=N/A speed=17.7x    frame=30627 fps=424 q=-0.0 size=N/A time=00:21:17.40 bitrate=N/A speed=17.7x    frame=30871 fps=424 q=-0.0 size=N/A time=00:21:27.57 bitrate=N/A speed=17.7x    frame=31143 fps=425 q=-0.0 size=N/A time=00:21:38.92 bitrate=N/A speed=17.7x    frame=31392 fps=426 q=-0.0 size=N/A time=00:21:49.30 bitrate=N/A speed=17.8x    frame=31611 fps=426 q=-0.0 size=N/A time=00:21:58.44 bitrate=N/A speed=17.7x    frame=31794 fps=425 q=-0.0 size=N/A time=00:22:06.07 bitrate=N/A speed=17.7x    frame=31950 fps=424 q=-0.0 size=N/A time=00:22:12.58 bitrate=N/A speed=17.7x    frame=32105 fps=423 q=-0.0 size=N/A time=00:22:19.04 bitrate=N/A speed=17.7x    frame=32243 fps=422 q=-0.0 size=N/A time=00:22:24.80 bitrate=N/A speed=17.6x    frame=32407 fps=422 q=-0.0 size=N/A time=00:22:31.64 bitrate=N/A speed=17.6x    frame=32600 fps=421 q=-0.0 size=N/A time=00:22:39.73 bitrate=N/A speed=17.6x    frame=32771 fps=421 q=-0.0 size=N/A time=00:22:46.82 bitrate=N/A speed=17.5x    frame=32918 fps=420 q=-0.0 size=N/A time=00:22:52.95 bitrate=N/A speed=17.5x    frame=33084 fps=419 q=-0.0 size=N/A time=00:22:59.87 bitrate=N/A speed=17.5x    frame=33239 fps=418 q=-0.0 size=N/A time=00:23:06.34 bitrate=N/A speed=17.5x    frame=33411 fps=418 q=-0.0 size=N/A time=00:23:13.51 bitrate=N/A speed=17.4x    frame=33606 fps=418 q=-0.0 size=N/A time=00:23:21.65 bitrate=N/A speed=17.4x    frame=33854 fps=418 q=-0.0 size=N/A time=00:23:31.99 bitrate=N/A speed=17.4x    frame=34147 fps=419 q=-0.0 size=N/A time=00:23:44.21 bitrate=N/A speed=17.5x    frame=34422 fps=420 q=-0.0 size=N/A time=00:23:55.68 bitrate=N/A speed=17.5x    frame=34708 fps=420 q=-0.0 size=N/A time=00:24:07.61 bitrate=N/A speed=17.5x    frame=34986 fps=421 q=-0.0 size=N/A time=00:24:19.20 bitrate=N/A speed=17.6x    frame=35267 fps=422 q=-0.0 size=N/A time=00:24:30.92 bitrate=N/A speed=17.6x    frame=35552 fps=423 q=-0.0 size=N/A time=00:24:42.81 bitrate=N/A speed=17.6x    [Parsed_psnr_10 @ 00000257f0cd1940] PSNR y:47.395597 u:49.743380 v:50.061069 average:48.081257 min:37.071810 max:inf
[out#0/null @ 00000257da2c4540] video:15333KiB audio:279064KiB subtitle:0KiB other streams:0KiB global headers:0KiB muxing overhead: unknown
frame=35683 fps=423 q=-0.0 Lsize=N/A time=00:24:48.27 bitrate=N/A speed=17.7x    
